<svg width="60" height="50" viewBox="0 0 60 50" fill="none" xmlns="http://www.w3.org/2000/svg">
<path d="M42.0812 37.073C42.0812 38.9224 41.6564 40.6796 40.8887 42.2444L40.8147 42.3944C38.8351 46.3008 34.7277 49 29.9969 49C25.2543 49 21.1587 46.3008 19.179 42.3944L19.105 42.2444L1.48313 7.471C-0.0210757 4.49888 2.16899 1 5.53982 1H22.4329C24.1515 1 25.718 1.95738 26.4857 3.47228L29.993 10.3931L40.8848 31.9016C41.6564 33.4665 42.0812 35.2275 42.0812 37.073Z" fill="url(#paint0_linear_2_7414)"/>
<path d="M54.4622 1C57.8331 1 60.0231 4.49888 58.515 7.471L43.5119 37.073L40.8815 42.2445C41.6531 40.6796 42.0739 38.9186 42.0739 37.073C42.0739 35.2275 41.6492 33.4665 40.8815 31.9016L29.9935 10.3931L33.5007 3.47228C34.2684 1.95738 35.8389 1 37.5535 1H54.4622Z" fill="url(#paint1_linear_2_7414)"/>
<defs>
<linearGradient id="paint0_linear_2_7414" x1="0.999916" y1="24.9998" x2="42.0802" y2="24.9998" gradientUnits="userSpaceOnUse">
<stop stop-color="#FA4001"/>
<stop offset="0.333333" stop-color="#CD0D14"/>
<stop offset="0.666667" stop-color="#A91D1E"/>
<stop offset="1" stop-color="#812924"/>
</linearGradient>
<linearGradient id="paint1_linear_2_7414" x1="29.9941" y1="21.6235" x2="59.0018" y2="21.6235" gradientUnits="userSpaceOnUse">
<stop stop-color="#016DEA"/>
<stop offset="0.334096" stop-color="#005FCD"/>
<stop offset="0.634882" stop-color="#0052B1"/>
<stop offset="1" stop-color="#003B7E"/>
</linearGradient>
</defs>
</svg>
